<svg xmlns="http://www.w3.org/2000/svg" viewBox="0 0 549.45 306.96"><defs><style>.cls-1{fill:#305596;}.cls-2{fill:#29d3ce;}</style></defs><title>BitQ&amp;amp;A_FilledColor_TransparentBG</title><g id="Layer_2" data-name="Layer 2"><g id="Layer_1-2" data-name="Layer 1"><rect class="cls-1" x="127.59" y="121.39" width="25.63" height="100.22"/><rect class="cls-1" x="127.59" y="81.99" width="25.63" height="25.44"/><path class="cls-1" d="M231.26,196.18q-2.3,1-6.12,2.29a23.62,23.62,0,0,1-7.84,1.34,10.56,10.56,0,0,1-6.79-2.2q-2.77-2.19-2.78-7.55v-49h21.05v-19.7H207.73V88.88H182.1v32.51H168.9v19.7h13.2v57.57A27.53,27.53,0,0,0,184.21,210a20.87,20.87,0,0,0,5.64,7.65,22,22,0,0,0,8.22,4.31,36.6,36.6,0,0,0,10.05,1.34A53,53,0,0,0,223.8,221a113.79,113.79,0,0,0,12.63-4.59Z"/><path class="cls-1" d="M84.17,152a30.27,30.27,0,0,0,14.54-12.91,37,37,0,0,0,5-18.65,37.46,37.46,0,0,0-2.2-12.52,36.36,36.36,0,0,0-6.22-11.1,32.06,32.06,0,0,0-9.75-7.93,26.83,26.83,0,0,0-12.82-3.07H65.06V68.07H47.73V85.81H29.46V68.07H12.13V85.81H0v135.8H12.13v17.28H29.46V221.61H47.73v17.28H65.06V221.61h.55a60.65,60.65,0,0,0,16.93-2.29,44.26,44.26,0,0,0,14-6.7,30.83,30.83,0,0,0,12.91-26q0-13.38-6.79-22.28A35,35,0,0,0,84.17,152ZM26.4,108.38H62.74A14,14,0,0,1,73.36,113q4.31,4.61,4.3,12.44,0,8-4.68,12.62a15.68,15.68,0,0,1-11.39,4.59H26.4Zm55.09,80.14a18.11,18.11,0,0,1-3.64,5.65,16.23,16.23,0,0,1-5.45,3.73,17.25,17.25,0,0,1-6.79,1.34H26.4V163.47H67a14,14,0,0,1,6.31,1.43,15.77,15.77,0,0,1,5,3.92,19.53,19.53,0,0,1,3.34,5.84,19.87,19.87,0,0,1,1.25,7A17.91,17.91,0,0,1,81.49,188.52Z"/><path class="cls-2" d="M393.6,183.57a24.56,24.56,0,0,0-.54,5.24,15.36,15.36,0,0,0,.84,5.44c.56,1.46,1.43,2.19,2.6,2.19q2.79,0,5.66-3.64-5-8-7.26-12.45A6.84,6.84,0,0,0,393.6,183.57Z"/><path class="cls-2" d="M341.36,105.44a10.15,10.15,0,0,0-3.54-4.5,10,10,0,0,0-15.14,4.54,27.72,27.72,0,0,0-1.62,5.72,37.6,37.6,0,0,0-.48,6.2v52.95q0,18.06,11.42,18.06t11.42-18.06V117.4a42,42,0,0,0-.44-6.23A25.08,25.08,0,0,0,341.36,105.44Z"/><path class="cls-2" d="M401.43,155.15a20.34,20.34,0,0,0,1.25-6.74,9,9,0,0,0-.89-4.06,3.1,3.1,0,0,0-3-1.76q-3.44,0-3.43,5.93a33.89,33.89,0,0,0,2.83,13A26.4,26.4,0,0,0,401.43,155.15Z"/><polygon class="cls-2" points="465.99 163.68 478.79 163.68 472.52 118.15 465.99 163.68"/><path class="cls-2" d="M403.44,0A146,146,0,0,0,299.57,248.6c-27.35,38.73-57.74,46.19-56.24,53.86,1.75,8.93,44.21,4.9,91.44-14.95q7.07-3,13.77-6.19A146,146,0,1,0,403.44,0Zm-35,164.22q0,25.22-14.66,37.41,2.07,4.44,12.11,4.43v15.06q-18.71,0-27.52-13.76a59.49,59.49,0,0,1-6.81.34,39.15,39.15,0,0,1-16.24-3.17,28,28,0,0,1-11.28-9,40.74,40.74,0,0,1-6.4-13.5,64.64,64.64,0,0,1-2.13-17.24V123.6a79.75,79.75,0,0,1,1.13-13.9,47.22,47.22,0,0,1,3.79-11.93,30.22,30.22,0,0,1,6.77-9.4,29.78,29.78,0,0,1,10.43-6,47.46,47.46,0,0,1,28.69,0,29.64,29.64,0,0,1,10.42,6,30.41,30.41,0,0,1,6.78,9.4,47.2,47.2,0,0,1,3.78,11.93,78.75,78.75,0,0,1,1.14,13.9ZM423,206.09a12.2,12.2,0,0,1-2.4.23q-4.67,0-10.93-5.93a17.67,17.67,0,0,1-6.11,4.43,18.2,18.2,0,0,1-7.42,1.54q-7.28,0-11.42-4.68a17.23,17.23,0,0,1-4.15-11.88q0-10.4,9.1-20.44-6.39-14-6.38-20.88a16.64,16.64,0,0,1,3.89-11.3q3.88-4.52,10.71-4.51,7,0,11.4,4.11t4.37,11a24.65,24.65,0,0,1-2.93,11.88,49.15,49.15,0,0,1-8.25,10.86L410,182.88q1.63-4.23,1.63-12.26h11a41.82,41.82,0,0,1-1.36,11.77,33.45,33.45,0,0,1-4.63,9.27,9.29,9.29,0,0,0,2.88,2.15,9.78,9.78,0,0,0,3.51,1Zm62.49-.91-5.09-26.24H464.27l-4.82,26.24H434.61L461.38,82.51h22.15l26.7,122.67Z"/></g></g></svg>